<?xml version="1.0" ?><!DOCTYPE svg  PUBLIC '-//W3C//DTD SVG 1.1//EN'  'http://www.w3.org/Graphics/SVG/1.1/DTD/svg11.dtd'><svg enable-background="new 0 0 64 64" id="Layer_1" version="1.1" viewBox="0 0 64 64" xml:space="preserve" xmlns="http://www.w3.org/2000/svg" xmlns:xlink="http://www.w3.org/1999/xlink"><g><path d="M57.4,0.7c-0.2-0.1-0.5,0-0.7,0.2c-4.2,8.4-13.9,17.7-19.9,23c-1.4-0.7-3.1-0.9-4.8-0.3    c-1.4-0.5-2.9-0.4-4.2,0.2c-1-1-2.2-2.1-3.6-3.4C18.5,15,10.7,7.7,7.3,0.9C7.2,0.7,6.9,0.6,6.6,0.7C6.4,0.8,6.3,1.1,6.4,1.4    c3.4,6.9,11.3,14.3,17.1,19.7c1.3,1.2,2.4,2.3,3.4,3.2c-0.3,0.2-0.6,0.4-0.8,0.7c-1.1,1.1-1.8,2.3-1.9,4.7c0,1.3,0.9,3.2,2,4.5    l3.7,3.5v13c0-0.6-0.4-1-1-1h-3c-0.6,0-1,0.4-1,1v4c0,0.6,0.4,1,1,1h4v1h-4c-0.6,0-1,0.4-1,1v5c0,0.6,0.4,1,1,1h3c0.6,0,1-0.4,1-1    c0,0.6,0.4,1,1,1h3c0.6,0,1-0.4,1-1V37.6l3.4-3.7c1.1-1.2,1.7-2.7,1.7-4.5c0-1.7-0.7-3.3-2-4.6c-0.2-0.2-0.3-0.3-0.5-0.4    c6.1-5.3,15.8-14.5,20-23.1C57.7,1.1,57.6,0.8,57.4,0.7z M36.7,26.3c0.9,0.9,1.4,2,1.4,3.2c0,1.3-0.4,2.3-1.1,3.1l-3.7,4    C33.1,36.8,33,37,33,37.2v24.5h-1v-1c0-0.6-0.4-1-1-1h-2c-0.6,0-1,0.4-1,1v1h-1v-3h4c0.6,0,1-0.4,1-1v-3c0-0.6-0.4-1-1-1h-4v-2h1    c0,0.6,0.4,1,1,1h2c0.6,0,1-0.4,1-1V37.3c0-0.3-0.1-0.5-0.3-0.7l-4-3.8c-0.9-0.9-1.5-2.3-1.5-3.1c0-1.7,0.4-2.5,1.3-3.3    c1.1-1.1,2.7-1.4,4.2-0.8c0.2,0.1,0.5,0.1,0.8,0c0.9-0.4,1.8-0.4,2.7-0.2c-0.6,0.5-1.2,1-1.7,1.4c-0.5,0.1-1,0.4-1.4,0.7    c-0.6-0.4-1.3-0.8-2-0.8c-0.6,0-1.1,0.2-1.5,0.6c-1.2,1.2-1.2,3.1,0,4.3l2.9,2.9c0.2,0.2,0.4,0.3,0.7,0.3h0c0.3,0,0.5-0.1,0.7-0.3    l2.9-2.9c1.1-1.2,1.1-3.1,0-4.3c-0.2-0.2-0.5-0.4-0.8-0.5c0.4-0.3,0.8-0.7,1.2-1C36.2,25.9,36.5,26.1,36.7,26.3z M31.3,29.5    c0.4,0.4,1,0.4,1.4,0c0.7-0.7,1.3-0.9,1.5-0.7c0.4,0.4,0.4,1.1,0,1.5L32,32.4l-2.2-2.2c-0.4-0.4-0.4-1.1,0-1.5c0,0,0,0,0.1,0    C30.2,28.7,30.7,28.9,31.3,29.5z" fill="#4D4D4D"/></g></svg>